<svg width="100%" height="100%" viewBox="0 0 578 463" version="1.1" xmlns="http://www.w3.org/2000/svg" xmlns:xlink="http://www.w3.org/1999/xlink" xml:space="preserve">
    <style>svg {color-scheme: light dark;}</style>
    <g transform="matrix(1,0,0,1,-367.856,-460.628)">
        <g transform="matrix(1,0,0,1,0,122.289)">
            <g transform="matrix(8.74378,0,0,8.74378,-3187.21,-7386.42)">
                <path d="M439.58,909.426C439.58,898.12 420.46,897.912 420.46,893.087C420.46,891.467 422.275,890.614 424.093,890.614C425.916,890.614 427.741,891.471 427.741,893.273C427.741,893.852 427.409,893.97 427.409,894.346C427.409,894.704 427.667,895.072 428.054,895.182C428.96,895.441 429.817,895.56 430.612,895.56C434.095,895.56 436.378,893.269 436.378,890.337C436.378,887.205 431.729,883.458 422.896,883.458C413.741,883.458 408.412,888.37 408.412,894.123C408.412,906.229 427.285,905.27 427.285,910.716C427.285,912.888 424.536,913.962 421.837,913.962C417.489,913.962 416.146,912.238 416.146,910.916C416.146,910.093 416.689,909.255 417.306,909.425C418.246,909.684 418.37,908.63 418.19,908.406C417.45,907.483 415.247,906.292 413.138,906.292C409.288,906.292 406.583,909.197 406.583,912.425C406.583,916.463 410.814,921.006 422.33,921.006C432.736,921.006 439.579,917.069 439.579,909.426L439.58,909.426Z" style="fill:light-dark(#000,#39A17F);fill-rule:nonzero;" />
            </g>
        </g>
        <g transform="matrix(1,0,0,1,0,122.289)">
            <g transform="matrix(8.30714,0,0,8.30714,-5196.95,-6907.67)">
                <path d="M718.867,900.882C718.856,900.21 718.929,900.188 718.974,900.057C719.242,899.269 727.52,896.424 727.299,893.94C727.131,892.043 724.646,891.319 722.288,891.528C718.491,891.866 717.78,893.443 717.555,894.631C717.521,894.807 717.234,895.892 717.347,898.63C717.427,900.587 717.571,904.418 717.628,908.067C717.692,914.094 718.924,920.207 712.171,920.4C703.769,920.64 699.838,915.948 699.838,913.742C699.838,913.441 699.911,913.181 700.055,912.981C701.724,910.663 705.527,914.094 705.619,908.067L705.619,895.361C705.619,893.726 705.483,892.708 705.062,892.183C704.77,891.817 704.388,891.741 704.01,891.741C703.743,891.741 703.478,891.779 703.248,891.779C701.748,891.779 700.52,891.125 700.52,889.242C700.52,887.202 705.031,883.956 710.039,883.956C714.861,883.956 715.139,888.222 716.16,888.222C717.8,888.222 718.64,884.309 725.377,884.309C730.769,884.309 735.316,886.973 735.316,892.565L735.318,892.563C735.318,895.761 732.933,898.357 730.025,900.134C732.9,901.902 733.965,904.345 734.089,905.472L734.172,907.571L734.172,916.608C734.172,922.079 737.737,918.929 739.229,921.167L739.231,921.167C740.308,922.659 737.68,927.882 728.892,927.882C720.104,927.882 717.699,922.659 718.777,921.167C720.269,918.929 723.917,922.079 723.834,916.608L723.751,906.078C723.751,903.838 723.482,902.875 722.519,902.767C722.319,902.784 722.126,902.794 721.941,902.796L721.884,902.796C721.776,902.796 721.67,902.793 721.566,902.788C720.094,902.832 718.908,902.677 718.866,900.925C718.866,900.911 718.866,900.896 718.867,900.882Z" style="fill:light-dark(#000,#39A17F);fill-rule:nonzero;" />
            </g>
        </g>
    </g>
</svg>