<svg viewBox="0 0 493 464" xmlns="http://www.w3.org/2000/svg" xml:space="preserve" style="fill-rule:evenodd;clip-rule:evenodd;stroke-linejoin:round;stroke-miterlimit:2"><style>path{fill:#000;} @media (prefers-color-scheme: dark) {path { fill: #fff; }}</style>
	<path d="M289.994 30.942A6026.735 6026.735 0 0 1 360.5 28c92.491-2.479 184.825-4.979 277-7.5 158.066.46 316.066 3.96 474 10.5 49.71 2.218 99.38 5.218 149 9 27.39 3.041 52.06 12.708 74 29 19.17 16.836 30 38.003 32.5 63.5 1.86 227.437-12.81 453.77-44 679-13.08 59.09-49.58 92.257-109.5 99.5-25.44.049-50.88.095-76.32.137l-1.74 31.941c0 3.499-.57 6.398-3.92 6.917-.35.055-2.71.083-3.08.083h-74.23c-3.86 0-7-3.134-7-7l-1.72-31.805c-224.175.294-448.345.303-672.516.026l-1.726 31.779c0 3.499-.567 6.398-3.92 6.917-.352.055-2.713.083-3.08.083h-74.227a7 7 0 0 1-7-7l-1.733-31.907c-32.263-.051-64.525-.108-96.788-.171-54.485-8.512-89.318-39.345-104.5-92.5-32.636-230.51-47.303-462.177-44-695C43.826 88.668 64.326 64.501 97.5 51a162.675 162.675 0 0 1 42-11c2.75-.2 5.501-.398 8.252-.595-.004-.19-.006-.38-.006-.571V11.796l2.607-12.868 7.069-10.493 10.494-7.07 12.868-2.607h14.81l369.275-246.576c.394-19.34 16.218-34.92 35.651-34.92 19.681 0 35.659 15.978 35.659 35.659 0 19.681-15.978 35.659-35.659 35.659-.438 0-.875-.008-1.309-.024L275.455-15.241h-.593l5.456 3.676 7.069 10.493 2.607 12.868v19.146zm-65.211-52.184h30.471l324.611-216.774a35.86 35.86 0 0 1-11.13-12.894L224.783-21.242zm38.197 53.531V11.796a6.024 6.024 0 0 0-6.024-6.024h-76.172a6.024 6.024 0 0 0-6.024 6.024v25.742a6016.505 6016.505 0 0 1 88.22-5.249zM601.5 57.5a15458.926 15458.926 0 0 0-463 13.5c-49.74 8.066-74.573 37.233-74.5 87.5-3.487 211.171 7.846 421.504 34 631 3.232 17.029 9.232 33.029 18 48 15.753 26.967 38.919 43.8 69.5 50.5 342.667.667 685.333.667 1028 0 13.16-1.942 25.49-6.275 37-13 26.92-19.635 44.42-45.802 52.5-78.5 28.24-218.421 39.57-437.754 34-658-1.88-13.649-6.88-25.983-15-37-16.01-17.425-35.85-27.591-59.5-30.5a14345.203 14345.203 0 0 0-661-13.5z" fill="currentColor" transform="translate(-13.158 112.064) scale(.37017)" />
	<path d="M580.5 79.5a15582.75 15582.75 0 0 1 671 12.5c24.87 2.883 42.37 15.716 52.5 38.5a129.333 129.333 0 0 1 6 29 4405.329 4405.329 0 0 1-20 504 2758.632 2758.632 0 0 1-14 113c-7.31 31.504-24.14 56.337-50.5 74.5a108.996 108.996 0 0 1-33 12c-328.667.667-657.333.667-986 0-30.521-6.501-53.354-23.334-68.5-50.5a188.647 188.647 0 0 1-14-34C100.672 599.461 89.505 419.628 90.5 239l.5-82.5c2.47-35.459 20.97-56.96 55.5-64.5a19661.73 19661.73 0 0 1 434-12.5zM444.894 769.726a5.662 5.662 0 0 0-5.661-5.662h-71.592a5.662 5.662 0 0 0-5.662 5.662v39.51c0-.448 83.232.317 82.915 0v-39.51zm493.963 0a5.662 5.662 0 0 0-5.662-5.662h-71.591a5.662 5.662 0 0 0-5.662 5.662v39.51c0-.448 83.232.317 82.915 0v-39.51zm-394.166 0a5.661 5.661 0 0 0-5.661-5.662h-71.592a5.662 5.662 0 0 0-5.662 5.662v39.51c0-.448 83.232.317 82.915 0v-39.51zm198.61 0a5.662 5.662 0 0 0-5.662-5.662h-71.592a5.662 5.662 0 0 0-5.662 5.662v39.51c0-.448 83.232.317 82.916 0v-39.51zM1065.5 577.5c-243-1.333-486-1.333-729 0 9.411 8.796 17.411 18.796 24 30 227 1.333 454 1.333 681 0a172.873 172.873 0 0 1 24-30zm56.63 19.526c-41.81 0-75.76 33.948-75.76 75.763 0 41.814 33.95 75.762 75.76 75.762 41.82 0 75.76-33.948 75.76-75.762 0-41.815-33.94-75.763-75.76-75.763zm0 37.821c20.94 0 37.94 17.001 37.94 37.942 0 20.94-17 37.942-37.94 37.942-20.94 0-37.94-17.002-37.94-37.942 0-20.941 17-37.942 37.94-37.942zM1038.5 739.5a240.602 240.602 0 0 1-12-30.5c-217-.667-434-.667-651 0a154.019 154.019 0 0 1-12 30.5c225 1.333 450 1.333 675 0zm-671-118c4.703 9.441 8.036 19.441 10 30 215.999 1 431.999 1.333 648 1 1.06-11.067 4.06-21.567 9-31.5-222.5-.833-444.834-.666-667 .5zm671.67 148.226a5.658 5.658 0 0 0-5.66-5.662h-71.589a5.662 5.662 0 0 0-5.662 5.662v39.51c0-.448 83.231.317 82.911 0v-39.51zm-393.123 0a5.662 5.662 0 0 0-5.662-5.662h-71.592a5.662 5.662 0 0 0-5.662 5.662v39.51c0-.448 83.232.317 82.916 0v-39.51zm195.032 0a5.662 5.662 0 0 0-5.662-5.662h-71.592a5.662 5.662 0 0 0-5.661 5.662v39.51c0-.448 83.232.317 82.915 0v-39.51zM1249.5 556.5a3711.207 3711.207 0 0 0 27.5-418c-3.44-8.827-9.94-13.993-19.5-15.5-83.95-4.389-167.95-7.723-252-10a11336.58 11336.58 0 0 0-863 10c-8.988 1.657-14.821 6.823-17.5 15.5a3690 3690 0 0 0 27.5 418h1097zm-967.379 40.526c-41.814 0-75.762 33.948-75.762 75.763 0 41.814 33.948 75.762 75.762 75.762 41.815 0 75.763-33.948 75.763-75.762 0-41.815-33.948-75.763-75.763-75.763zm0 37.821c20.941 0 37.943 17.001 37.943 37.942 0 20.94-17.002 37.942-37.943 37.942-20.94 0-37.942-17.002-37.942-37.942 0-20.941 17.002-37.942 37.942-37.942zM1022.5 664.5h-643c.323 6.522-.01 12.855-1 19-.086 4.357-.42 8.69-1 13h646a467.821 467.821 0 0 1-1-32z" fill="currentColor" transform="translate(-13.158 112.064) scale(.37017)" />
	<path d="M632.5 129.5c.722.418 1.222 1.084 1.5 2a842.25 842.25 0 0 1 7 44c.667 104.667.667 209.333 0 314a4162.642 4162.642 0 0 0-7 48 1650.147 1650.147 0 0 1-7-46c-.667-105-.667-210 0-315a879.293 879.293 0 0 0 5.5-47zM679.5 536.5l-2-1a448.466 448.466 0 0 0-5.5-38 26393.304 26393.304 0 0 1 0-325 2847.65 2847.65 0 0 1 6-43 302.247 302.247 0 0 1 7 44c.667 107.667.667 215.333 0 323l-5.5 40zM498.5 131.5c3.74 14.655 6.24 29.655 7.5 45 .667 105.333.667 210.667 0 316a1254.518 1254.518 0 0 1-6 44 339.123 339.123 0 0 1-7-48 24480.26 24480.26 0 0 1 0-313 383.59 383.59 0 0 0 5.5-44zM543.5 132.5c3.557 14.677 6.057 29.677 7.5 45 .667 105.333.667 210.667 0 316a2470.876 2470.876 0 0 1-6 44 1656.248 1656.248 0 0 1-7-46 25109.945 25109.945 0 0 1 0-317 2626.128 2626.128 0 0 0 5.5-42zM587.5 130.5c1.193.47 1.86 1.47 2 3a463.092 463.092 0 0 1 6.5 45c.667 103.667.667 207.333 0 311a430.24 430.24 0 0 1-6.5 45l-6.5-39a26069.466 26069.466 0 0 1 0-323 238.465 238.465 0 0 0 4.5-42zM722.5 132.5c3.774 14.646 6.274 29.646 7.5 45 .667 106.667.667 213.333 0 320a1130.265 1130.265 0 0 1-6 42 463.067 463.067 0 0 1-7-47c-.667-105-.667-210 0-315a778.467 778.467 0 0 0 5.5-45zM363.5 134.5c3.557 14.004 6.057 28.337 7.5 43 .667 105.667.667 211.333 0 317a1968.44 1968.44 0 0 1-6 39 1942.47 1942.47 0 0 1-7-43 24480.26 24480.26 0 0 1 0-313 712.53 712.53 0 0 0 5.5-43zM453.5 133.5c3.558 14.007 6.058 28.34 7.5 43 .667 104 .667 208 0 312a822.832 822.832 0 0 1-7 46 1785.955 1785.955 0 0 1-7-48 24013.244 24013.244 0 0 1 0-310 1981.977 1981.977 0 0 1 6.5-43zM767.5 134.5c1.575 4.43 2.742 9.097 3.5 14a2458.808 2458.808 0 0 0 4 31c.667 104.667.667 209.333 0 314a1138.3 1138.3 0 0 1-6 45 258.043 258.043 0 0 1-7-42c-.667-106-.667-212 0-318a2945.49 2945.49 0 0 0 5.5-44zM901.5 134.5c.722.418 1.222 1.084 1.5 2a585.118 585.118 0 0 1 6 41c.667 106.333.667 212.667 0 319a1310.295 1310.295 0 0 1-6.5 41 831.76 831.76 0 0 1-6.5-40c-.667-107-.667-214 0-321a1506.345 1506.345 0 0 0 5.5-42zM811.5 134.5c1.901 2.843 3.067 6.176 3.5 10a1164.043 1164.043 0 0 1 5 37c.667 103.333.667 206.667 0 310a474.893 474.893 0 0 1-6.5 44 2256.703 2256.703 0 0 1-6.5-38 25587.457 25587.457 0 0 1 0-320 188.254 188.254 0 0 1 4-27c.499-5.323.666-10.656.5-16zM856.5 133.5c.617.111 1.117.444 1.5 1a374.685 374.685 0 0 1 6 45c.667 104.667.667 209.333 0 314l-6 46c-2.326-14.627-4.66-29.294-7-44-.667-106-.667-212 0-318a993.196 993.196 0 0 0 5.5-44zM318.5 135.5c3.898 14.632 6.732 29.632 8.5 45 .667 103.333.667 206.667 0 310a665.832 665.832 0 0 1-7 44 1524.118 1524.118 0 0 1-7-41 24480.26 24480.26 0 0 1 0-313 7146.393 7146.393 0 0 0 5.5-45zM946.5 134.5c.617.111 1.117.444 1.5 1a447.553 447.553 0 0 1 7 48c.667 103 .667 206 0 309a371.445 371.445 0 0 1-7 43 531.642 531.642 0 0 1-7.5-49.5 48349.178 48349.178 0 0 0 1.5-308.5 122.665 122.665 0 0 1 4-26c.499-5.657.666-11.324.5-17zM991.5 135.5c3.665 12.974 6.165 26.308 7.5 40 .667 107 .667 214 0 321a478.4 478.4 0 0 1-6 41l-6-42a24636.932 24636.932 0 0 1 0-314 235.885 235.885 0 0 1 4-28c.499-5.991.666-11.991.5-18zM1036.5 137.5c3.56 13.337 6.06 27.003 7.5 41 .67 105.333.67 210.667 0 316a626.518 626.518 0 0 1-6 44 597.106 597.106 0 0 1-7-48c-.67-102.667-.67-205.333 0-308a777.338 777.338 0 0 0 5.5-45zM1081.5 138.5c3.77 14.648 6.27 29.648 7.5 45 .67 104.333.67 208.667 0 313-2.34 14.034-4.67 28.034-7 42a3675.857 3675.857 0 0 0-7-49c-.67-101.333-.67-202.667 0-304a2364.68 2364.68 0 0 1 6.5-47zM273.5 139.5c1.901 2.843 3.067 6.176 3.5 10a595.26 595.26 0 0 1 5 34c.667 102.667.667 205.333 0 308a1395.852 1395.852 0 0 1-7 45c-2.003-13.345-4.003-26.678-6-40a24951.774 24951.774 0 0 1 0-316 122.636 122.636 0 0 1 4-26c.499-4.989.666-9.989.5-15zM184.5 140.5c3.57 14.701 6.07 29.701 7.5 45 .667 101.333.667 202.667 0 304a1644.572 1644.572 0 0 0-7 46 823.619 823.619 0 0 1-7-46c-.667-101-.667-202 0-303a657.573 657.573 0 0 1 6.5-46zM229.5 140.5c3.558 14.679 6.058 29.679 7.5 45 .667 101.667.667 203.333 0 305a1050.54 1050.54 0 0 1-7 45 1240.375 1240.375 0 0 1-6-40c-.667-104-.667-208 0-312a1444.398 1444.398 0 0 1 5.5-43zM1125.5 140.5c1.62 1.089 2.45 2.756 2.5 5a372.73 372.73 0 0 1 6 41c.67 102 .67 204 0 306a1657.232 1657.232 0 0 1-7 46 601.367 601.367 0 0 1-7-48c-.67-101.667-.67-203.333 0-305a777.338 777.338 0 0 0 5.5-45zM1170.5 143.5c1.57 1.181 2.4 2.847 2.5 5a657.289 657.289 0 0 1 6 39c.67 101.667.67 203.333 0 305a1316.435 1316.435 0 0 1-7 45 510.542 510.542 0 0 1-7-44c-.67-102.667-.67-205.333 0-308 1.95-14.006 3.78-28.006 5.5-42zM1215.5 143.5c3.88 13.613 6.38 27.613 7.5 42 .67 105 .67 210 0 315a720.108 720.108 0 0 0-6 37 205.915 205.915 0 0 1-7-42c-.67-102.333-.67-204.667 0-307 1.84-15.013 3.67-30.013 5.5-45zM408.5 133.5c3.774 14.646 6.274 29.646 7.5 45 .667 104 .667 208 0 312a1054.301 1054.301 0 0 1-7 45l-7.5-51.5a48349.178 48349.178 0 0 0 1.5-308.5c1.838-14.012 3.671-28.012 5.5-42z" fill="currentColor" transform="translate(-13.158 112.064) scale(.37017)" />
	<path d="m677.5 535.5 2 1c-.746 4.979-1.412 4.646-2-1zM1065.5 577.5c-243-1.333-486-1.333-729 0-.789-.283-1.456-.783-2-1.5 244.333-.667 488.667-.667 733 0-.54.717-1.21 1.217-2 1.5zM1022.5 664.5h-643c.323 6.522-.01 12.855-1 19v-20c214.834-.333 429.501 0 644 1zM363.5 739.5c225 1.333 450 1.333 675 0 .54.06.88.393 1 1a57305.951 57305.951 0 0 1-677 0c.124-.607.457-.94 1-1z" fill="currentColor" transform="translate(-13.158 112.064) scale(.37017)" /></svg>