<?xml version="1.0" encoding="UTF-8" standalone="no"?>

<svg width="512" height="512" xmlns="http://www.w3.org/2000/svg">
  <style>
    path {
      fill: #f15a23;
    }
    @media (prefers-color-scheme: dark) {
      path {
        fill: white;
      }
    }
  </style>

  <title>Radio</title>
  <g id="Radio" transform="matrix(1.5007 0 0 1.5007 -128.17 -128.17)">
        <g id="Radio-2" data-name="Radio">
            <path
                d="m344.35 208.05h-151.41l123.59-70.215-6.98-12.274-145.65 82.756a28.967 28.967 0 00-25.249 28.71v120.44a28.984 28.984 0 0028.98 28.975h176.71a28.982 28.982 0 0028.985-28.975v-120.44a28.98 28.98 0 00-28.985-28.976zm-120.67 33.912a55.12 55.12 0 0143.228 20.898h-86.467a55.149 55.149 0 0143.239-20.898zm0 110.56a55.146 55.146 0 01-43.239-20.894h86.467a55.124 55.124 0 01-43.228 20.894zm51.389-35.005h-102.78a54.9 54.9 0 01-3.3858-13.215h109.56a55.448 55.448 0 01-3.391 13.215zm-106.16-27.33a54.699 54.699 0 013.3858-13.211h102.78a55.014 55.014 0 013.391 13.211zm173.13 6.8756h-28.985v-14.111h28.985zm0-32.598h-28.985v-14.116h28.985z" />
        </g>
    </g>
</svg>